# xmcd
# 
# Track frame offsets:
#     150
#     15377
#     30107
#     44977
#     57566
#     65948
#     80706
#     96934
#     110704
#     125659
#     135407
#     151933
#     171719
#     190961
# 
# Disc length: 2788
# 
# Revision: 0
# Processed by: cddbd v1.5.2PL0 Copyright (c) Steve Scherf et al.
# Submitted via: fre:ac v1.0.17
# 
DISCID=cf0ae20e
DTITLE=Bob McCarthy - Satisfied Mind
DYEAR=2006
DGENRE=Blues
TTITLE0=Atlanta Blues
TTITLE1=Deep River Blues
TTITLE2=Sittin' On Top of the World
TTITLE3=Route 66
TTITLE4=Walkin
TTITLE5=Trouble in Mind
TTITLE6=Keep on the Sunny Side
TTITLE7=Whiskey
TTITLE8=You Gotta Move
TTITLE9=Whispering
TTITLE10=No Score
TTITLE11=Satisfied Mind
TTITLE12=Pallet on the Floor
TTITLE13=Goodbye Again
EXTD=
EXTT0=
EXTT1=
EXTT2=
EXTT3=
EXTT4=
EXTT5=
EXTT6=
EXTT7=
EXTT8=
EXTT9=
EXTT10=
EXTT11=
EXTT12=
EXTT13=
PLAYORDER=
